PathFileType	4	(X/Y/Z)	Gait_media_markers.trc
DataRate	CameraRate	NumFrames	NumMarkers	Units	OrigDataRate	OrigDataStartFrame	OrigNumFrames
100	100	8	38	m	100	12	93
Frame#	Time	RASI			RPSI			LPSI			LASI			RTROCH			RTHI			RTHI2			RTHI3			RTHI4			RKNE			RKNEM			RTIB			RTIB2			RTIB3			RTIB4			RANK			RANKM			RHEE			RTOE			RTOEL			RTOEM			LTROCH			LTHI			LTHI2			LTHI3			LTHI4			LKNE			LKNEM			LTIB			LTIB2			LTIB3			LTIB4			LANK			LANKM			LHEE			LTOE			LTOEL			LTOEM
		X1	Y1	Z1	X2	Y2	Z2	X3	Y3	Z3	X4	Y4	Z4	X5	Y5	Z5	X6	Y6	Z6	X7	Y7	Z7	X8	Y8	Z8	X9	Y9	Z9	X10	Y10	Z10	X11	Y11	Z11	X12	Y12	Z12	X13	Y13	Z13	X14	Y14	Z14	X15	Y15	Z15	X16	Y16	Z16	X17	Y17	Z17	X18	Y18	Z18	X19	Y19	Z19	X20	Y20	Z20	X21	Y21	Z21	X22	Y22	Z22	X23	Y23	Z23	X24	Y24	Z24	X25	Y25	Z25	X26	Y26	Z26	X27	Y27	Z27	X28	Y28	Z28	X29	Y29	Z29	X30	Y30	Z30	X31	Y31	Z31	X32	Y32	Z32	X33	Y33	Z33	X34	Y34	Z34	X35	Y35	Z35	X36	Y36	Z36	X37	Y37	Z37	X38	Y38	Z38

12	0.110000	-0.331878	0.941991	-0.626479	-0.265062	0.992109	-0.808453	-0.167520	0.977865	-0.801266	-0.106536	0.950873	-0.617707	-0.390412	0.872985	-0.696003	-0.397984	0.758463	-0.728381	-0.377020	0.752652	-0.665631	-0.360802	0.671641	-0.669729	-0.381462	0.671651	-0.732763	-0.341577	0.526058	-0.764902	-0.231622	0.540539	-0.785808	-0.367666	0.402752	-0.829666	-0.323984	0.385011	-0.783203	-0.320256	0.302533	-0.813697	-0.365055	0.325269	-0.858460	-0.317797	0.126547	-0.954746	-0.239570	0.128427	-0.941088	-0.290571	0.081531	-1.032163	-0.268251	0.051558	-0.798765	-0.336946	0.041013	-0.841473	-0.221350	0.028900	-0.826547	-0.047454	0.878951	-0.687601	-0.042047	0.681039	-0.596424	-0.069142	0.698314	-0.541618	-0.080932	0.617734	-0.524029	-0.053708	0.595503	-0.578411	-0.080593	0.526872	-0.535288	-0.187234	0.538479	-0.548786	-0.061435	0.308913	-0.487242	-0.087077	0.337628	-0.435992	-0.096944	0.254476	-0.407879	-0.072041	0.231253	-0.460617	-0.097702	0.106124	-0.400902	-0.174245	0.144029	-0.391345	-0.142841	0.040546	-0.435264	-0.136720	0.150003	-0.228378	-0.085883	0.104777	-0.249758	-0.187900	0.135903	-0.246893
13	0.120000	-0.331739	0.940616	-0.614673	-0.264634	0.990820	-0.796229	-0.167115	0.976015	-0.788416	-0.106026	0.949610	-0.605087	-0.390016	0.871646	-0.684594	-0.397941	0.757487	-0.718218	-0.376831	0.750964	-0.655059	-0.360452	0.670172	-0.659591	-0.381165	0.670832	-0.723041	-0.341387	0.525175	-0.756002	-0.232744	0.538689	-0.774336	-0.367532	0.403025	-0.822936	-0.324256	0.384339	-0.776576	-0.320762	0.302573	-0.808661	-0.365790	0.326661	-0.853682	-0.318499	0.128841	-0.952944	-0.240497	0.130161	-0.938816	-0.290813	0.084746	-1.030693	-0.268421	0.051382	-0.798447	-0.337006	0.040913	-0.841335	-0.221411	0.029189	-0.826352	-0.047133	0.877388	-0.674803	-0.042860	0.679440	-0.582187	-0.068686	0.697647	-0.527201	-0.082046	0.617925	-0.508805	-0.056060	0.594419	-0.563389	-0.083654	0.527470	-0.518764	-0.189922	0.540201	-0.532241	-0.063348	0.307924	-0.474229	-0.091237	0.334470	-0.422760	-0.101017	0.250148	-0.397331	-0.074130	0.229069	-0.450186	-0.099576	0.102967	-0.396006	-0.176898	0.139105	-0.385300	-0.144323	0.040224	-0.432608	-0.139660	0.141359	-0.222537	-0.087826	0.098154	-0.245462	-0.190242	0.126463	-0.241034
14	0.130000	-0.331485	0.939457	-0.602370	-0.264206	0.989724	-0.783797	-0.167931	0.977195	-0.779514	-0.105495	0.948729	-0.592104	-0.389508	0.870404	-0.673113	-0.397414	0.756463	-0.707687	-0.376918	0.749721	-0.643965	-0.360557	0.668955	-0.649420	-0.380890	0.669836	-0.712900	-0.341447	0.524589	-0.746772	-0.231395	0.538309	-0.764068	-0.366621	0.402903	-0.815076	-0.324916	0.383861	-0.770072	-0.321611	0.302638	-0.803497	-0.366104	0.327791	-0.848402	-0.318545	0.131140	-0.950906	-0.240262	0.133572	-0.936075	-0.291055	0.088596	-1.029254	-0.268627	0.051174	-0.798053	-0.337135	0.040736	-0.841214	-0.221407	0.029782	-0.826269	-0.046721	0.875794	-0.661473	-0.043589	0.677838	-0.567683	-0.068495	0.697262	-0.512517	-0.083308	0.617716	-0.493145	-0.058505	0.593157	-0.547934	-0.087381	0.528153	-0.501371	-0.192261	0.540351	-0.515969	-0.065894	0.306577	-0.461630	-0.095368	0.330845	-0.410138	-0.104742	0.245809	-0.387791	-0.076371	0.226876	-0.440693	-0.101927	0.100298	-0.392208	-0.179959	0.134298	-0.381048	-0.146065	0.041180	-0.430572	-0.143018	0.132332	-0.217357	-0.089839	0.091574	-0.241705	-0.193222	0.116854	-0.235907
15	0.140000	-0.331075	0.938208	-0.590047	-0.263755	0.988807	-0.771213	-0.167130	0.970931	-0.759939	-0.105028	0.947762	-0.578808	-0.392007	0.872225	-0.669461	-0.397305	0.755849	-0.697707	-0.377031	0.749049	-0.632611	-0.360946	0.667838	-0.639104	-0.380549	0.668987	-0.702668	-0.341546	0.523848	-0.737316	-0.230939	0.537421	-0.752493	-0.367558	0.403942	-0.808722	-0.326061	0.383482	-0.763269	-0.322772	0.302776	-0.798033	-0.366331	0.329093	-0.842680	-0.319911	0.134007	-0.948729	-0.242735	0.134971	-0.933220	-0.291465	0.092610	-1.027357	-0.269059	0.050854	-0.797643	-0.337184	0.040233	-0.840865	-0.221235	0.030693	-0.826396	-0.046398	0.874370	-0.647690	-0.044893	0.676362	-0.552892	-0.068865	0.696550	-0.497556	-0.085064	0.617450	-0.477629	-0.061124	0.592156	-0.532476	-0.090645	0.528671	-0.484277	-0.194719	0.540011	-0.501222	-0.068896	0.305227	-0.449985	-0.099700	0.328020	-0.398383	-0.108772	0.242540	-0.378479	-0.079103	0.225178	-0.431208	-0.104363	0.097918	-0.386766	-0.183311	0.130342	-0.376186	-0.147165	0.042461	-0.427981	-0.147094	0.124294	-0.211980	-0.092875	0.085341	-0.238124	-0.197002	0.107625	-0.230831
16	0.150000	-0.330758	0.937336	-0.577523	-0.263008	0.987812	-0.758415	-0.166673	0.974643	-0.753653	-0.104727	0.947417	-0.565314	-0.388141	0.868883	-0.650091	-0.395805	0.754426	-0.686219	-0.377401	0.748125	-0.621951	-0.361568	0.666855	-0.628575	-0.380136	0.668330	-0.692267	-0.341846	0.523249	-0.727575	-0.230480	0.536372	-0.740047	-0.367657	0.404721	-0.800958	-0.327319	0.383064	-0.755712	-0.324336	0.303083	-0.792383	-0.366731	0.330622	-0.836588	-0.320883	0.137135	-0.946211	-0.243903	0.138220	-0.929673	-0.292109	0.097063	-1.024954	-0.269597	0.050450	-0.797134	-0.337533	0.040175	-0.840562	-0.221705	0.031595	-0.826264	-0.046019	0.873329	-0.633442	-0.046926	0.675583	-0.537828	-0.070281	0.695769	-0.482210	-0.087454	0.616975	-0.462449	-0.064169	0.591199	-0.517354	-0.094678	0.527669	-0.468226	-0.197187	0.539118	-0.488352	-0.071980	0.304806	-0.437763	-0.104126	0.326499	-0.386505	-0.113333	0.240403	-0.368508	-0.082236	0.224149	-0.420719	-0.107005	0.096747	-0.380366	-0.186254	0.127450	-0.370363	-0.147882	0.044498	-0.424976	-0.152244	0.117036	-0.206165	-0.096925	0.080384	-0.233357	-0.201292	0.099380	-0.226097
17	0.160000	-0.330206	0.936458	-0.564758	-0.262025	0.986994	-0.745554	-0.165530	0.973704	-0.740347	-0.104629	0.947463	-0.551613	-0.387987	0.867919	-0.639008	-0.394754	0.754153	-0.675677	-0.377533	0.747763	-0.611458	-0.362329	0.666432	-0.617891	-0.379059	0.667959	-0.681693	-0.342355	0.522623	-0.717075	-0.230197	0.535270	-0.726502	-0.367978	0.405882	-0.792604	-0.328615	0.382424	-0.747152	-0.326147	0.303662	-0.785864	-0.367668	0.332714	-0.830298	-0.322889	0.140873	-0.943172	-0.246250	0.142224	-0.926142	-0.292886	0.102711	-1.022309	-0.270355	0.050158	-0.796434	-0.337787	0.039927	-0.840387	-0.222566	0.032337	-0.825740	-0.045636	0.873001	-0.618943	-0.049170	0.675034	-0.522180	-0.072623	0.695010	-0.466511	-0.090828	0.616224	-0.447920	-0.067498	0.590877	-0.503089	-0.097371	0.528262	-0.453704	-0.200385	0.539407	-0.476418	-0.075248	0.306013	-0.425632	-0.109110	0.325462	-0.374464	-0.118571	0.239820	-0.358480	-0.084542	0.224304	-0.409522	-0.109109	0.097625	-0.375285	-0.188913	0.125460	-0.365885	-0.148218	0.047540	-0.422834	-0.157840	0.109143	-0.200795	-0.101961	0.073820	-0.229035	-0.206183	0.091054	-0.221865
18	0.170000	-0.330112	0.936363	-0.552043	-0.260800	0.986252	-0.732496	-0.164196	0.973543	-0.727125	-0.104630	0.948017	-0.537977	-0.377094	0.797616	-0.507875	-0.394148	0.754815	-0.666078	-0.377801	0.747992	-0.600701	-0.363081	0.666358	-0.606683	-0.378664	0.667896	-0.670690	-0.342967	0.522198	-0.705306	-0.229968	0.534100	-0.711765	-0.368450	0.407186	-0.783056	-0.330404	0.382199	-0.737604	-0.328456	0.304591	-0.778856	-0.368419	0.335065	-0.822784	-0.324187	0.145126	-0.939395	-0.247171	0.145737	-0.920475	-0.293301	0.108811	-1.018627	-0.270918	0.050054	-0.795416	-0.338024	0.039935	-0.840009	-0.222861	0.033783	-0.825887	-0.045197	0.873551	-0.604383	-0.051388	0.675564	-0.506394	-0.075823	0.695067	-0.451101	-0.094602	0.615841	-0.433749	-0.070236	0.591230	-0.488663	-0.100002	0.528716	-0.439762	-0.203506	0.539610	-0.466775	-0.077587	0.306659	-0.412702	-0.113636	0.324769	-0.362391	-0.122892	0.239826	-0.348427	-0.086320	0.224854	-0.398914	-0.110129	0.094038	-0.366215	-0.190516	0.123154	-0.360944	-0.147721	0.048181	-0.419202	-0.163229	0.101145	-0.196288	-0.106182	0.068369	-0.224844	-0.210629	0.083357	-0.218929
19	0.180000	-0.329894	0.936496	-0.539289	-0.259545	0.986035	-0.719604	-0.162660	0.973799	-0.713751	-0.104760	0.949025	-0.524408	-0.386247	0.867587	-0.615292	-0.392087	0.754537	-0.654121	-0.377705	0.748261	-0.589234	-0.363767	0.666441	-0.594786	-0.377755	0.667958	-0.659074	-0.343985	0.521700	-0.692497	-0.229867	0.532792	-0.695745	-0.369271	0.408188	-0.772535	-0.332272	0.381821	-0.726667	-0.330569	0.305386	-0.770124	-0.369170	0.337394	-0.813860	-0.325492	0.149972	-0.934905	-0.249376	0.150175	-0.914352	-0.293946	0.116271	-1.014513	-0.271334	0.050012	-0.794479	-0.338239	0.039915	-0.839582	-0.223551	0.034911	-0.825449	-0.044595	0.874714	-0.589952	-0.053254	0.677126	-0.491001	-0.079645	0.696293	-0.436299	-0.098112	0.617736	-0.419566	-0.071450	0.592661	-0.473591	-0.102115	0.530177	-0.424871	-0.205844	0.540529	-0.457804	-0.078750	0.307974	-0.400043	-0.117568	0.324069	-0.351271	-0.125602	0.237323	-0.340419	-0.087356	0.225935	-0.389414	-0.110616	0.095506	-0.363567	-0.191654	0.122201	-0.357190	-0.147002	0.049654	-0.417502	-0.166518	0.094673	-0.192834	-0.108502	0.063857	-0.221862	-0.213414	0.077323	-0.216787
